<mxfile host="app.diagrams.net" modified="2021-12-02T09:41:40.137Z" agent="5.0 (Macintosh; Intel Mac OS X 10_15_7) AppleWebKit/537.36 (KHTML, like Gecko) Chrome/96.0.4664.55 Safari/537.36" etag="XIGBAz4rq-xmNgvfJAuV" version="15.5.5" type="github">
  <diagram id="pvPXpdTdr9g-x0vPqRnA" name="第 1 页">
    <mxGraphModel dx="161" dy="121" grid="0" gridSize="10" guides="1" tooltips="1" connect="1" arrows="1" fold="1" page="1" pageScale="1" pageWidth="827" pageHeight="1169" background="#ffffff" math="0" shadow="0">
      <root>
        <mxCell id="0" />
        <mxCell id="1" parent="0" />
        <mxCell id="lJ8bLzqIQdZpLCqrgNHg-3" value="" style="edgeStyle=orthogonalEdgeStyle;rounded=0;orthogonalLoop=1;jettySize=auto;html=1;endSize=1;startSize=1;jumpSize=1;strokeWidth=0.5;" edge="1" parent="1" source="lJ8bLzqIQdZpLCqrgNHg-1" target="lJ8bLzqIQdZpLCqrgNHg-2">
          <mxGeometry relative="1" as="geometry" />
        </mxCell>
        <mxCell id="lJ8bLzqIQdZpLCqrgNHg-1" value="" style="rounded=1;whiteSpace=wrap;html=1;strokeWidth=0.5;" vertex="1" parent="1">
          <mxGeometry x="83" y="52" width="43" height="12" as="geometry" />
        </mxCell>
        <mxCell id="lJ8bLzqIQdZpLCqrgNHg-2" value="" style="rounded=1;whiteSpace=wrap;html=1;strokeWidth=0.5;" vertex="1" parent="1">
          <mxGeometry x="83" y="87" width="43" height="12" as="geometry" />
        </mxCell>
      </root>
    </mxGraphModel>
  </diagram>
</mxfile>
